<svg width="347" height="92" viewBox="0 0 347 92" fill="none" xmlns="http://www.w3.org/2000/svg">
<path d="M0.996094 26.25H16.6406L29.4727 62.5195L43.3008 26.25H52.8516L66.3867 62.1094L79.2188 26.25H94.9805L71.7188 90H61.582L47.9883 53.6719L33.9844 90H23.9648L0.996094 26.25ZM151.172 26.25H167.109V90H151.172V83.2617C148.047 86.2305 144.902 88.3789 141.738 89.707C138.613 90.9961 135.215 91.6406 131.543 91.6406C123.301 91.6406 116.172 88.457 110.156 82.0898C104.141 75.6836 101.133 67.7344 101.133 58.2422C101.133 48.3984 104.043 40.332 109.863 34.043C115.684 27.7539 122.754 24.6094 131.074 24.6094C134.902 24.6094 138.496 25.332 141.855 26.7773C145.215 28.2227 148.32 30.3906 151.172 33.2812V26.25ZM134.355 39.375C129.395 39.375 125.273 41.1328 121.992 44.6484C118.711 48.125 117.07 52.5977 117.07 58.0664C117.07 63.5742 118.73 68.1055 122.051 71.6602C125.41 75.2148 129.531 76.9922 134.414 76.9922C139.453 76.9922 143.633 75.2539 146.953 71.7773C150.273 68.2617 151.934 63.6719 151.934 58.0078C151.934 52.4609 150.273 47.9688 146.953 44.5312C143.633 41.0938 139.434 39.375 134.355 39.375ZM230.391 26.25H246.328V90H230.391V83.2617C227.266 86.2305 224.121 88.3789 220.957 89.707C217.832 90.9961 214.434 91.6406 210.762 91.6406C202.52 91.6406 195.391 88.457 189.375 82.0898C183.359 75.6836 180.352 67.7344 180.352 58.2422C180.352 48.3984 183.262 40.332 189.082 34.043C194.902 27.7539 201.973 24.6094 210.293 24.6094C214.121 24.6094 217.715 25.332 221.074 26.7773C224.434 28.2227 227.539 30.3906 230.391 33.2812V26.25ZM213.574 39.375C208.613 39.375 204.492 41.1328 201.211 44.6484C197.93 48.125 196.289 52.5977 196.289 58.0664C196.289 63.5742 197.949 68.1055 201.27 71.6602C204.629 75.2148 208.75 76.9922 213.633 76.9922C218.672 76.9922 222.852 75.2539 226.172 71.7773C229.492 68.2617 231.152 63.6719 231.152 58.0078C231.152 52.4609 229.492 47.9688 226.172 44.5312C222.852 41.0938 218.652 39.375 213.574 39.375ZM258.75 26.25H272.461V34.2773C273.945 31.1133 275.918 28.7109 278.379 27.0703C280.84 25.4297 283.535 24.6094 286.465 24.6094C288.535 24.6094 290.703 25.1562 292.969 26.25L287.988 40.0195C286.113 39.082 284.57 38.6133 283.359 38.6133C280.898 38.6133 278.809 40.1367 277.09 43.1836C275.41 46.2305 274.57 52.207 274.57 61.1133L274.629 64.2188V90H258.75V26.25ZM307.207 0C310.02 0 312.422 1.01562 314.414 3.04688C316.445 5.07813 317.461 7.53906 317.461 10.4297C317.461 13.2813 316.465 15.7227 314.473 17.7539C312.48 19.7461 310.098 20.7422 307.324 20.7422C304.473 20.7422 302.031 19.7266 300 17.6953C298.008 15.625 297.012 13.125 297.012 10.1953C297.012 7.38281 298.008 4.98047 300 2.98828C301.992 0.996094 304.395 0 307.207 0ZM299.18 26.25H315.234V90H299.18V26.25ZM336.035 0C338.848 0 341.25 1.01562 343.242 3.04688C345.273 5.07813 346.289 7.53906 346.289 10.4297C346.289 13.2813 345.293 15.7227 343.301 17.7539C341.309 19.7461 338.926 20.7422 336.152 20.7422C333.301 20.7422 330.859 19.7266 328.828 17.6953C326.836 15.625 325.84 13.125 325.84 10.1953C325.84 7.38281 326.836 4.98047 328.828 2.98828C330.82 0.996094 333.223 0 336.035 0ZM328.008 26.25H344.062V90H328.008V26.25Z" fill="black"/>
</svg>
